<svg id="Capa_1" enable-background="new 0 0 513 513" height="512" viewBox="0 0 513 513" width="512" xmlns="http://www.w3.org/2000/svg"><g><g><g><path d="m505 168.323c0-35.417-28.712-64.129-64.129-64.129-7.816 0-15.272 1.468-22.199 4.028-38.121-41.873-93.068-68.157-154.156-68.157-63.697 0-120.682 28.606-158.912 73.635-9.753-5.991-21.19-9.506-33.475-9.506-35.417 0-64.129 28.711-64.129 64.129 0 30.166 20.856 55.397 48.915 62.238-.504 5.913-.819 11.88-.819 17.924 0 113.345 90.495 205.491 203.167 208.287 15.27 10.199 33.608 16.165 53.349 16.165 44.322 0 81.542-30.017 92.695-70.801 41.559-38.101 67.628-92.826 67.628-153.651 0-8.065-.505-16.007-1.396-23.833 19.934-10.878 33.461-32.022 33.461-56.329z" fill="#00d2dc"/></g><g><g><path d="m292.816 447.053c-94.001-12.382-168.816-88.946-179.302-183.178-3.698-33.236.615-64.991 11.05-93.829 7.487-20.691.152-44.389-18.501-56.061-.154-.097-.309-.192-.464-.288-4.818-2.958-10.051-5.301-15.59-6.927-.231-.067-.469-.115-.701-.18-2.302-.647-4.667-1.137-7.066-1.524-.633-.1-1.263-.208-1.901-.29-2.692-.35-5.423-.584-8.213-.584-35.416.002-64.128 28.713-64.128 64.131 0 30.166 20.856 55.397 48.915 62.238-.504 5.913-.819 11.88-.819 17.924 0 113.345 90.495 205.491 203.167 208.287 15.27 10.199 33.608 16.165 53.349 16.165 29.711 0 56.184-13.529 73.799-34.707-28.907 9.612-60.578 13.172-93.595 8.823z" fill="#0096d2"/></g></g><g><path d="m380.75 176.339c-15.425 0-29.488 6.975-40.129 18.437-8.325 8.968-20.309 5.611-32.545 5.611h-2.867c-12.047 0-23.275 2.914-32.173-5.207-12.94-11.811-30.193-18.974-49.125-18.839-38.226.272-70.532 31.881-71.591 70.093-1.131 40.781 31.591 74.195 72.117 74.195 2.487 0 91.13-.372 139.147-.574 19.763-.083 39.057-5.718 55.772-16.261 13.153-13.235 21.516-33.1 21.516-55.31-.001-39.845-26.918-72.145-60.122-72.145z" fill="#beebeb"/></g><g><circle cx="312.613" cy="376.742" fill="#beebeb" r="96.194"/></g><g><path d="m336.661 456.903c-53.126 0-96.194-43.068-96.194-96.194 0-28.2 12.21-53.485 31.542-71.08-32.806 15.32-55.59 48.515-55.59 87.112 0 53.126 43.067 96.194 96.194 96.194 24.927 0 47.564-9.562 64.653-25.115-12.35 5.768-26.075 9.083-40.605 9.083z" fill="#00d2dc"/></g><g><circle cx="224.435" cy="248.484" fill="#0096d2" r="24.048"/></g><g><circle cx="384.758" cy="248.484" fill="#0096d2" r="24.048"/></g><g><circle cx="239.132" cy="234.456" fill="#fff" r="12.024"/></g><g><circle cx="398.716" cy="234.456" fill="#fff" r="12.024"/></g><g><circle cx="72.129" cy="168.323" fill="#00d2dc" r="32.065"/></g><g><circle cx="300.589" cy="412.815" fill="#0096d2" r="20.04"/></g></g><g fill="#283c64"><path d="m513 168.323c0-39.772-32.357-72.129-72.129-72.129-6.77 0-13.439.943-19.879 2.788-1.134-1.186-2.28-2.365-3.444-3.529-40.876-40.876-95.224-63.388-153.032-63.388-61.373 0-119.67 26.004-160.716 71.495-9.751-4.771-20.571-7.366-31.671-7.366-39.772-.001-72.129 32.356-72.129 72.129 0 31.473 20.271 58.286 48.436 68.112-.22 4.009-.339 8.042-.339 12.049 0 56.783 21.829 110.44 61.466 151.085 39.161 40.157 91.431 63.257 147.348 65.189 16.122 10.239 35.231 16.178 55.702 16.178 47.158 0 87.092-31.494 99.891-74.552 21.23-19.901 37.983-43.407 49.787-69.896 12.371-27.762 18.644-57.371 18.644-88.004 0-6.583-.307-13.117-.884-19.595 20.671-13.369 32.949-35.852 32.949-60.566zm-200.387 296.613c-48.63 0-88.193-39.563-88.193-88.194 0-48.63 39.563-88.193 88.193-88.193s88.194 39.563 88.194 88.193-39.564 88.194-88.194 88.194zm135.064-134.96c-7.935 17.808-18.297 34.155-30.896 48.836.013-.689.026-1.378.026-2.07 0-57.453-46.741-104.193-104.194-104.193-33.149 0-62.731 15.562-81.827 39.762-2.105.208-4.231.319-6.35.319-17.477 0-33.813-6.903-45.998-19.438-12.18-12.529-18.616-29.069-18.121-46.573.96-33.948 30.256-62.279 64.175-62.279.275 0 .556.002.832.005 12.524.171 24.619 3.984 34.976 11.026 12.524 8.516 28.169 13.017 45.244 13.017h1.066c16.574 0 33.616-5.602 49.282-16.201 7.59-5.134 16.186-7.848 24.859-7.848 28.74 0 52.121 28.775 52.121 64.145 0 19.294-6.995 37.398-19.191 49.67-3.115 3.134-3.099 8.199.035 11.313s8.199 3.099 11.313-.035c15.152-15.246 23.842-37.461 23.842-60.949 0-44.192-30.559-80.145-68.121-80.145-11.881 0-23.577 3.664-33.824 10.595-13.01 8.801-26.952 13.453-40.317 13.453h-1.066c-13.853 0-26.387-3.544-36.248-10.248-12.956-8.81-28.085-13.579-43.753-13.793-20.896-.303-40.891 7.706-56.338 22.501-15.455 14.802-24.291 34.448-24.881 55.319-.618 21.861 7.423 42.522 22.642 58.177 14.252 14.661 33.049 23.153 53.307 24.178-7.564 14.427-11.852 30.831-11.852 48.22 0 26.963 10.295 51.566 27.16 70.086-43.429-6.258-83.459-26.535-114.562-58.43-36.706-37.64-56.921-87.329-56.921-139.915 0-2.816.061-5.645.179-8.468 2.581.281 5.199.435 7.854.435 4.888 0 9.775-.493 14.528-1.465 4.329-.886 7.12-5.113 6.234-9.441-.885-4.328-5.109-7.118-9.441-6.234-3.699.757-7.508 1.141-11.321 1.141-30.95 0-56.129-25.179-56.129-56.129s25.179-56.129 56.129-56.129c17.92 0 34.914 8.672 45.458 23.197 2.596 3.576 7.599 4.369 11.174 1.774 3.575-2.596 4.37-7.598 1.774-11.174-3.755-5.173-8.15-9.766-13.029-13.706 37.906-40.894 91.078-64.22 147.01-64.22 110.512 0 200.419 89.908 200.419 200.419 0 28.377-5.807 55.795-17.259 81.495zm29.992-119.249c-6.282-35.906-21.516-69.454-44.583-97.988 2.567-.356 5.165-.546 7.785-.546 30.95 0 56.129 25.18 56.129 56.129 0 16.562-7.089 31.836-19.331 42.405z"/><path d="m72.129 128.258c-22.092 0-40.064 17.973-40.064 40.064s17.973 40.064 40.064 40.064 40.064-17.973 40.064-40.064-17.972-40.064-40.064-40.064zm0 64.129c-13.269 0-24.064-10.795-24.064-24.064s10.795-24.064 24.064-24.064 24.064 10.795 24.064 24.064-10.795 24.064-24.064 24.064z"/><path d="m248.484 240.484c-4.418 0-8 3.582-8 8 0 8.849-7.199 16.048-16.048 16.048s-16.048-7.199-16.048-16.048 7.199-16.048 16.048-16.048c4.418 0 8-3.582 8-8s-3.582-8-8-8c-17.671 0-32.048 14.377-32.048 32.048s14.377 32.048 32.048 32.048 32.048-14.377 32.048-32.048c0-4.419-3.582-8-8-8z"/><path d="m408.807 240.484c-4.418 0-8 3.582-8 8 0 8.849-7.199 16.048-16.048 16.048s-16.049-7.199-16.049-16.048 7.2-16.048 16.049-16.048c4.418 0 8-3.582 8-8s-3.582-8-8-8c-17.672 0-32.049 14.377-32.049 32.048s14.377 32.048 32.049 32.048c17.671 0 32.048-14.377 32.048-32.048 0-4.419-3.582-8-8-8z"/><path d="m337.618 313.939c-6.881 4.513-13.312 6.706-19.661 6.706s-12.78-2.193-19.661-6.706c-3.694-2.421-8.654-1.391-11.077 2.303-2.423 3.695-1.392 8.654 2.303 11.077 9.437 6.188 19.004 9.326 28.436 9.326s18.999-3.138 28.436-9.326c3.694-2.423 4.726-7.382 2.303-11.077-2.425-3.695-7.384-4.725-11.079-2.303z"/><path d="m300.589 384.774c-15.461 0-28.041 12.579-28.041 28.04s12.579 28.041 28.041 28.041 28.04-12.579 28.04-28.041-12.579-28.04-28.04-28.04zm0 40.081c-6.639 0-12.041-5.401-12.041-12.041 0-6.639 5.401-12.04 12.041-12.04 6.639 0 12.04 5.401 12.04 12.04 0 6.64-5.401 12.041-12.04 12.041z"/></g></g></svg>